<svg id="Layer_1" data-name="Layer 1" xmlns="http://www.w3.org/2000/svg" viewBox="0 0 350 102.05"><defs><style>.cls-1{fill:#fff;}</style></defs><title>OK Full White Horz</title><path class="cls-1" d="M87.79,22.75,74.33,30.91l28.45,31.78a38.48,38.48,0,0,0-15-39.94Z"/><path class="cls-1" d="M72.28,32.15,27.13,59.53a38.53,38.53,0,0,0,74.93,5.88Z"/><path class="cls-1" d="M85.64,21.3A38.52,38.52,0,0,0,26.73,54c0,1,.05,2,.12,3Z"/><path class="cls-1" d="M140.63,51.7c-7.4,0-13.42-5.42-13.42-13a12.94,12.94,0,0,1,13.26-12.86c7.37,0,13.42,5.38,13.42,12.92S147.94,51.7,140.63,51.7Zm0-23.58c-6,0-11.16,4.38-11.16,10.56s4.88,10.76,11.09,10.76,11.1-4.32,11.1-10.56A10.74,10.74,0,0,0,140.6,28.12Z"/><path class="cls-1" d="M169.59,51.17H157.86V26.39h11.73c7.21,0,11.95,4.92,11.95,12.36S176.2,51.17,169.59,51.17Zm0-22.52h-9.43V48.91h9.43c5.21,0,9.66-3.36,9.66-10.1S175.1,28.65,169.59,28.65Z"/><path class="cls-1" d="M186.15,51.17V26.42h20.42v2.33h-18.2v8.5h9.93v2.26h-9.93v9.4h19v2.26Z"/><path class="cls-1" d="M213.48,51.17V26.42h2.26V48.88h16.17v2.29Z"/><path class="cls-1" d="M237.48,51.17V26.42h2.25V48.88h16.18v2.29Z"/><path class="cls-1" d="M177.82,82.74l-9.37-14-7.57,7.54v6.48h-2.3V58h2.3V73.07L176.05,58h3.16l-9.07,9,10.4,15.71Z"/><path class="cls-1" d="M186.15,82.74V58h20.43v2.33h-18.2v8.5h9.93v2.26h-9.93v9.4h19v2.26Z"/><path class="cls-1" d="M213.48,82.74V58h2.26V80.45h16.17v2.29Z"/><path class="cls-1" d="M237.48,82.74V58h2.25V80.45h16.18v2.29Z"/><path class="cls-1" d="M262,82.74V58H282.4v2.33H264.2v8.5h9.93v2.26H264.2v9.4h19v2.26Z"/><path class="cls-1" d="M307.85,70.91a8.92,8.92,0,0,1-4.05,1.37l6.28,10.46h-2.63l-6.24-10.46h-10.8V82.74h-2.33V58h14.59c2.49,0,3.22.2,4.68,1,2.06,1.12,3.26,4,3.26,6.14A7.5,7.5,0,0,1,307.85,70.91ZM306.29,61c-.86-.54-1.76-.77-4.62-.77H290.41V70h11.26c2.63,0,3.79-.17,4.79-.9A5.17,5.17,0,0,0,308.35,65,4.43,4.43,0,0,0,306.29,61Z"/></svg>